# xmcd
#
# Track frame offsets:
# 150
# 34937
# 55212
# 80450
# 98006
# 131843
# 147785
# 174866
# 199209
# 230352
# 269655
# 305518
#
# Disc length: 4585 seconds
#
# Revision: 0
# Processed by: cddbd v1.4PL0 Copyright (c) Steve Scherf et al.
# Submitted via: Audion 3.0.2 (http://www.panic.com/audion/)
#
DISCID=a511e70c
DTITLE=Anacomda - ++++
DYEAR=1900
DGENRE=
TTITLE0=anaconda i need a hero
TTITLE1=dj's @ work activated
TTITLE2=cosmic gate the wawe
TTITLE3=2002 canarias  endless summer
TTITLE4=verena rain and tears
TTITLE5=fddfd
TTITLE6=g-project we're on the move
TTITLE7=ice mc think about the way 2002
TTITLE8=groovw converage god is a pirl
TTITLE9=future breeze heaven above
TTITLE10=master boy j nead a lover tonight
TTITLE11=ayla sun coming out
EXTD=
EXTT0=
EXTT1=
EXTT2=
EXTT3=
EXTT4=
EXTT5=
EXTT6=
EXTT7=
EXTT8=
EXTT9=
EXTT10=
EXTT11=
PLAYORDER=
